<mxfile host="app.diagrams.net" modified="2024-01-17T20:23:34.859Z" agent="Mozilla/5.0 (Windows NT 10.0; Win64; x64; rv:121.0) Gecko/20100101 Firefox/121.0" etag="rqFnv_wh7mVo1woKUGvk" version="22.1.21" type="github">
  <diagram id="C5RBs43oDa-KdzZeNtuy" name="Page-1">
    <mxGraphModel dx="1050" dy="558" grid="1" gridSize="10" guides="1" tooltips="1" connect="1" arrows="1" fold="1" page="1" pageScale="1" pageWidth="827" pageHeight="1169" math="0" shadow="0">
      <root>
        <mxCell id="WIyWlLk6GJQsqaUBKTNV-0" />
        <mxCell id="WIyWlLk6GJQsqaUBKTNV-1" parent="WIyWlLk6GJQsqaUBKTNV-0" />
        <mxCell id="WIyWlLk6GJQsqaUBKTNV-2" value="" style="rounded=0;html=1;jettySize=auto;orthogonalLoop=1;fontSize=11;endArrow=block;endFill=0;endSize=8;strokeWidth=1;shadow=0;labelBackgroundColor=none;edgeStyle=orthogonalEdgeStyle;" parent="WIyWlLk6GJQsqaUBKTNV-1" source="WIyWlLk6GJQsqaUBKTNV-3" target="WIyWlLk6GJQsqaUBKTNV-6" edge="1">
          <mxGeometry relative="1" as="geometry" />
        </mxCell>
        <mxCell id="WIyWlLk6GJQsqaUBKTNV-3" value="&lt;div&gt;Cloth is clipped&lt;/div&gt;&lt;div&gt;on the conveyor&lt;/div&gt;&lt;div&gt;Manually&lt;br&gt;&lt;/div&gt;" style="rounded=1;whiteSpace=wrap;html=1;fontSize=12;glass=0;strokeWidth=1;shadow=0;" parent="WIyWlLk6GJQsqaUBKTNV-1" vertex="1">
          <mxGeometry x="5" y="175" width="140" height="70" as="geometry" />
        </mxCell>
        <mxCell id="mVVsbdydKIP_td9GK2hM-7" value="" style="edgeStyle=orthogonalEdgeStyle;rounded=0;orthogonalLoop=1;jettySize=auto;html=1;" edge="1" parent="WIyWlLk6GJQsqaUBKTNV-1" source="WIyWlLk6GJQsqaUBKTNV-6" target="mVVsbdydKIP_td9GK2hM-5">
          <mxGeometry relative="1" as="geometry" />
        </mxCell>
        <mxCell id="mVVsbdydKIP_td9GK2hM-9" style="edgeStyle=orthogonalEdgeStyle;rounded=0;orthogonalLoop=1;jettySize=auto;html=1;entryX=0;entryY=0.5;entryDx=0;entryDy=0;" edge="1" parent="WIyWlLk6GJQsqaUBKTNV-1" source="WIyWlLk6GJQsqaUBKTNV-6" target="mVVsbdydKIP_td9GK2hM-8">
          <mxGeometry relative="1" as="geometry" />
        </mxCell>
        <mxCell id="WIyWlLk6GJQsqaUBKTNV-6" value="&lt;div&gt;Cloth &lt;br&gt;&lt;/div&gt;&lt;div&gt;is&lt;/div&gt;&lt;div&gt;CLEANED&lt;br&gt;&lt;/div&gt;" style="rhombus;whiteSpace=wrap;html=1;shadow=0;fontFamily=Helvetica;fontSize=12;align=center;strokeWidth=1;spacing=6;spacingTop=-4;" parent="WIyWlLk6GJQsqaUBKTNV-1" vertex="1">
          <mxGeometry x="180" y="160" width="120" height="100" as="geometry" />
        </mxCell>
        <mxCell id="mVVsbdydKIP_td9GK2hM-2" style="edgeStyle=orthogonalEdgeStyle;rounded=0;orthogonalLoop=1;jettySize=auto;html=1;" edge="1" parent="WIyWlLk6GJQsqaUBKTNV-1" source="mVVsbdydKIP_td9GK2hM-1" target="WIyWlLk6GJQsqaUBKTNV-6">
          <mxGeometry relative="1" as="geometry" />
        </mxCell>
        <mxCell id="mVVsbdydKIP_td9GK2hM-1" value="Water and Ammonia is used to soak and clean the cloth article" style="ellipse;whiteSpace=wrap;html=1;" vertex="1" parent="WIyWlLk6GJQsqaUBKTNV-1">
          <mxGeometry x="165" y="10" width="150" height="110" as="geometry" />
        </mxCell>
        <mxCell id="mVVsbdydKIP_td9GK2hM-5" value="The excess liquid is drained out using a container underneath the conveyor" style="ellipse;whiteSpace=wrap;html=1;" vertex="1" parent="WIyWlLk6GJQsqaUBKTNV-1">
          <mxGeometry x="165" y="310" width="150" height="120" as="geometry" />
        </mxCell>
        <mxCell id="mVVsbdydKIP_td9GK2hM-12" value="" style="edgeStyle=orthogonalEdgeStyle;rounded=0;orthogonalLoop=1;jettySize=auto;html=1;" edge="1" parent="WIyWlLk6GJQsqaUBKTNV-1" source="mVVsbdydKIP_td9GK2hM-8" target="mVVsbdydKIP_td9GK2hM-11">
          <mxGeometry relative="1" as="geometry" />
        </mxCell>
        <mxCell id="mVVsbdydKIP_td9GK2hM-8" value="&lt;div&gt;Micelle Formation&lt;/div&gt;&lt;div&gt;Occurs&lt;br&gt;&lt;/div&gt;" style="rounded=1;whiteSpace=wrap;html=1;fontSize=12;glass=0;strokeWidth=1;shadow=0;" vertex="1" parent="WIyWlLk6GJQsqaUBKTNV-1">
          <mxGeometry x="330" y="180" width="100" height="60" as="geometry" />
        </mxCell>
        <mxCell id="mVVsbdydKIP_td9GK2hM-16" value="" style="edgeStyle=orthogonalEdgeStyle;rounded=0;orthogonalLoop=1;jettySize=auto;html=1;" edge="1" parent="WIyWlLk6GJQsqaUBKTNV-1" source="mVVsbdydKIP_td9GK2hM-11" target="mVVsbdydKIP_td9GK2hM-15">
          <mxGeometry relative="1" as="geometry" />
        </mxCell>
        <mxCell id="mVVsbdydKIP_td9GK2hM-11" value="&lt;div&gt;Cloth &lt;br&gt;&lt;/div&gt;&lt;div&gt;is&lt;/div&gt;&lt;div&gt;WASHED&lt;br&gt;&lt;/div&gt;" style="rhombus;whiteSpace=wrap;html=1;shadow=0;fontFamily=Helvetica;fontSize=12;align=center;strokeWidth=1;spacing=6;spacingTop=-4;" vertex="1" parent="WIyWlLk6GJQsqaUBKTNV-1">
          <mxGeometry x="460" y="160" width="120" height="100" as="geometry" />
        </mxCell>
        <mxCell id="mVVsbdydKIP_td9GK2hM-14" value="" style="edgeStyle=orthogonalEdgeStyle;rounded=0;orthogonalLoop=1;jettySize=auto;html=1;" edge="1" parent="WIyWlLk6GJQsqaUBKTNV-1" source="mVVsbdydKIP_td9GK2hM-13" target="mVVsbdydKIP_td9GK2hM-11">
          <mxGeometry relative="1" as="geometry" />
        </mxCell>
        <mxCell id="mVVsbdydKIP_td9GK2hM-13" value="Water jet is used to rinse of the excess ammonia solution and micelles" style="ellipse;whiteSpace=wrap;html=1;" vertex="1" parent="WIyWlLk6GJQsqaUBKTNV-1">
          <mxGeometry x="445" y="10" width="150" height="110" as="geometry" />
        </mxCell>
        <mxCell id="mVVsbdydKIP_td9GK2hM-18" value="" style="edgeStyle=orthogonalEdgeStyle;rounded=0;orthogonalLoop=1;jettySize=auto;html=1;" edge="1" parent="WIyWlLk6GJQsqaUBKTNV-1" source="mVVsbdydKIP_td9GK2hM-15" target="mVVsbdydKIP_td9GK2hM-17">
          <mxGeometry relative="1" as="geometry" />
        </mxCell>
        <mxCell id="mVVsbdydKIP_td9GK2hM-15" value="&lt;div&gt;Cloth &lt;br&gt;&lt;/div&gt;&lt;div&gt;is&lt;/div&gt;&lt;div&gt;DRYED&lt;br&gt;&lt;/div&gt;" style="rhombus;whiteSpace=wrap;html=1;shadow=0;fontFamily=Helvetica;fontSize=12;align=center;strokeWidth=1;spacing=6;spacingTop=-4;" vertex="1" parent="WIyWlLk6GJQsqaUBKTNV-1">
          <mxGeometry x="630" y="160" width="120" height="100" as="geometry" />
        </mxCell>
        <mxCell id="mVVsbdydKIP_td9GK2hM-17" value="&lt;div&gt;Cloth is removed off the conveyor &lt;br&gt;&lt;/div&gt;&lt;div&gt;manually&lt;br&gt;&lt;/div&gt;" style="rounded=1;whiteSpace=wrap;html=1;fontSize=12;glass=0;strokeWidth=1;shadow=0;" vertex="1" parent="WIyWlLk6GJQsqaUBKTNV-1">
          <mxGeometry x="640" y="340" width="100" height="60" as="geometry" />
        </mxCell>
        <mxCell id="mVVsbdydKIP_td9GK2hM-20" value="" style="edgeStyle=orthogonalEdgeStyle;rounded=0;orthogonalLoop=1;jettySize=auto;html=1;" edge="1" parent="WIyWlLk6GJQsqaUBKTNV-1" source="mVVsbdydKIP_td9GK2hM-19" target="mVVsbdydKIP_td9GK2hM-15">
          <mxGeometry relative="1" as="geometry" />
        </mxCell>
        <mxCell id="mVVsbdydKIP_td9GK2hM-19" value="Blow dryer and heating is used along with agitation if required" style="ellipse;whiteSpace=wrap;html=1;" vertex="1" parent="WIyWlLk6GJQsqaUBKTNV-1">
          <mxGeometry x="615" y="10" width="150" height="110" as="geometry" />
        </mxCell>
      </root>
    </mxGraphModel>
  </diagram>
</mxfile>
